<svg xmlns="http://www.w3.org/2000/svg" version="1.2" baseProfile="tiny" width="60.8" height="60.8" viewBox="24 24 152 152"><path d="M100,28 L172,100 100,172 28,100 100,28 Z" stroke-width="4" stroke="black" fill="rgb(255,128,128)" fill-opacity="1"></path><path d="m 90,125 20,0 m -20,0 c 0,-4.1 -3.4,-7.5 -7.5,-7.5 -4.1,0 -7.5,3.4 -7.5,7.5 0,4.1 3.4,7.5 7.5,7.5 4.1,0 7.5,-3.4 7.5,-7.5 z m 35,0 5,0 0,-20 -20,0 0,-20 -20,0 0,20 -20,0 0,20 5,0 m 50,0 c 0,-4.1 -3.4,-7.5 -7.5,-7.5 -4.1,0 -7.5,3.4 -7.5,7.5 0,4.1 3.4,7.5 7.5,7.5 4.1,0 7.5,-3.4 7.5,-7.5 z" stroke-width="4" stroke="black" fill="rgb(239, 239, 239)"></path><path d="m 95,90 0,15 10,0 0,-15 z" stroke-width="2" stroke="black" fill="none"></path></svg>