<svg width="940" height="67" viewBox="0 0 940 67" fill="none" xmlns="http://www.w3.org/2000/svg">
<g clip-path="url(#clip0_80_53755)">
<path d="M6.22222 9.33355H56V3.11133H6.22222H0V9.33355V28.0002V34.2224H6.22222H49.7778H56V28.0002V21.778H49.7778V28.0002H6.22222V9.33355Z" fill="white" fill-opacity="0.95"/>
<path d="M6.22222 40.4453H0V46.6675V59.112H6.22222V46.6675H37.3333V59.112H43.5556V46.6675V40.4453H37.3333H6.22222Z" fill="white" fill-opacity="0.95"/>
<path d="M56.0001 40.4453H49.7778V59.112H56.0001V40.4453Z" fill="white" fill-opacity="0.95"/>
</g>
<path d="M916.566 67C915.493 67 914.485 66.9138 913.544 66.7415C912.616 66.5824 911.847 66.3769 911.237 66.125L913.146 59.8011C914.14 60.1061 915.035 60.2718 915.831 60.2983C916.639 60.3248 917.335 60.1392 917.919 59.7415C918.515 59.3438 918.999 58.6676 919.37 57.7131L919.868 56.4205L908.91 25H917.819L924.143 47.4318H924.461L930.845 25H939.814L927.941 58.8466C927.371 60.4905 926.596 61.9224 925.615 63.142C924.647 64.375 923.421 65.3229 921.936 65.9858C920.451 66.6619 918.661 67 916.566 67Z" fill="white" fill-opacity="0.95"/>
<path d="M908.058 24.9998V31.3635H889.663V24.9998H908.058ZM893.839 17.6816H902.311V46.1589C902.311 46.9411 902.43 47.551 902.669 47.9885C902.907 48.4127 903.239 48.711 903.663 48.8833C904.101 49.0557 904.604 49.1419 905.174 49.1419C905.572 49.1419 905.97 49.1087 906.368 49.0424C906.765 48.9629 907.07 48.9032 907.282 48.8635L908.615 55.1674C908.191 55.3 907.594 55.4525 906.825 55.6248C906.056 55.8104 905.121 55.9231 904.021 55.9629C901.979 56.0424 900.19 55.7707 898.652 55.1475C897.127 54.5244 895.941 53.5566 895.092 52.2441C894.244 50.9316 893.826 49.2744 893.839 47.2725V17.6816Z" fill="white" fill-opacity="0.95"/>
<path d="M878.793 55.5452V24.9997H887.265V55.5452H878.793ZM883.049 21.0622C881.789 21.0622 880.709 20.6446 879.807 19.8094C878.919 18.9609 878.475 17.9467 878.475 16.7668C878.475 15.6001 878.919 14.5992 879.807 13.7639C880.709 12.9155 881.789 12.4912 883.049 12.4912C884.308 12.4912 885.382 12.9155 886.271 13.7639C887.172 14.5992 887.623 15.6001 887.623 16.7668C887.623 17.9467 887.172 18.9609 886.271 19.8094C885.382 20.6446 884.308 21.0622 883.049 21.0622Z" fill="white" fill-opacity="0.95"/>
<path d="M874.247 14.8184V55.5456H865.775V14.8184H874.247Z" fill="white" fill-opacity="0.95"/>
<path d="M852.758 55.5452V24.9997H861.229V55.5452H852.758ZM857.013 21.0622C855.754 21.0622 854.673 20.6446 853.772 19.8094C852.884 18.9609 852.439 17.9467 852.439 16.7668C852.439 15.6001 852.884 14.5992 853.772 13.7639C854.673 12.9155 855.754 12.4912 857.013 12.4912C858.273 12.4912 859.347 12.9155 860.235 13.7639C861.136 14.5992 861.587 15.6001 861.587 16.7668C861.587 17.9467 861.136 18.9609 860.235 19.8094C859.347 20.6446 858.273 21.0622 857.013 21.0622Z" fill="white" fill-opacity="0.95"/>
<path d="M849.479 24.9998V31.3635H831.084V24.9998H849.479ZM835.26 17.6816H843.732V46.1589C843.732 46.9411 843.851 47.551 844.09 47.9885C844.328 48.4127 844.66 48.711 845.084 48.8833C845.521 49.0557 846.025 49.1419 846.595 49.1419C846.993 49.1419 847.391 49.1087 847.789 49.0424C848.186 48.9629 848.491 48.9032 848.703 48.8635L850.036 55.1674C849.611 55.3 849.015 55.4525 848.246 55.6248C847.477 55.8104 846.542 55.9231 845.442 55.9629C843.4 56.0424 841.611 55.7707 840.073 55.1475C838.548 54.5244 837.361 53.5566 836.513 52.2441C835.664 50.9316 835.247 49.2744 835.26 47.2725V17.6816Z" fill="white" fill-opacity="0.95"/>
<path d="M819.936 14.8184H828.546V41.2672C828.546 44.2369 827.837 46.8354 826.418 49.0627C825.013 51.2899 823.044 53.0267 820.512 54.2729C817.98 55.5059 815.03 56.1223 811.663 56.1223C808.282 56.1223 805.326 55.5059 802.793 54.2729C800.261 53.0267 798.293 51.2899 796.887 49.0627C795.482 46.8354 794.779 44.2369 794.779 41.2672V14.8184H803.39V40.5314C803.39 42.0826 803.728 43.4614 804.404 44.6678C805.094 45.8742 806.061 46.8221 807.308 47.5115C808.554 48.2009 810.006 48.5456 811.663 48.5456C813.333 48.5456 814.785 48.2009 816.018 47.5115C817.264 46.8221 818.225 45.8742 818.901 44.6678C819.591 43.4614 819.936 42.0826 819.936 40.5314V14.8184Z" fill="white" fill-opacity="0.95"/>
<path d="M779.353 14.8184V55.5456H770.881V14.8184H779.353Z" fill="white" fill-opacity="0.95"/>
<path d="M749.347 56.1215C747.398 56.1215 745.662 55.7834 744.137 55.1072C742.612 54.4179 741.406 53.4036 740.518 52.0646C739.643 50.7124 739.205 49.0286 739.205 47.0135C739.205 45.3165 739.517 43.8913 740.14 42.7379C740.763 41.5845 741.611 40.6565 742.685 39.9538C743.759 39.2512 744.979 38.7209 746.344 38.3629C747.723 38.005 749.168 37.7531 750.68 37.6072C752.456 37.4216 753.888 37.2493 754.975 37.0902C756.062 36.9179 756.851 36.666 757.341 36.3345C757.832 36.0031 758.077 35.5125 758.077 34.8629V34.7436C758.077 33.4841 757.68 32.5097 756.884 31.8203C756.102 31.1309 754.988 30.7862 753.543 30.7862C752.019 30.7862 750.805 31.1243 749.904 31.8004C749.002 32.4633 748.406 33.2985 748.114 34.3061L740.279 33.6697C740.677 31.8137 741.459 30.2095 742.626 28.8572C743.792 27.4917 745.297 26.4444 747.14 25.7152C748.996 24.9728 751.144 24.6016 753.583 24.6016C755.28 24.6016 756.904 24.8004 758.455 25.1982C760.019 25.5959 761.405 26.2124 762.611 27.0476C763.831 27.8828 764.792 28.9567 765.495 30.2692C766.198 31.5684 766.549 33.1262 766.549 34.9425V55.5447H758.515V51.309H758.276C757.786 52.2635 757.129 53.1053 756.307 53.8345C755.485 54.5504 754.498 55.1139 753.344 55.5249C752.191 55.9226 750.858 56.1215 749.347 56.1215ZM751.773 50.2749C753.019 50.2749 754.12 50.0296 755.074 49.5391C756.029 49.0353 756.778 48.3591 757.322 47.5107C757.865 46.6622 758.137 45.701 758.137 44.6271V41.3857C757.872 41.558 757.507 41.7171 757.043 41.8629C756.592 41.9955 756.082 42.1214 755.512 42.2408C754.942 42.3468 754.372 42.4463 753.802 42.5391C753.232 42.6186 752.715 42.6915 752.251 42.7578C751.256 42.9036 750.388 43.1357 749.645 43.4538C748.903 43.772 748.326 44.2029 747.915 44.7465C747.504 45.2768 747.299 45.9396 747.299 46.7351C747.299 47.8885 747.716 48.7701 748.552 49.38C749.4 49.9766 750.474 50.2749 751.773 50.2749Z" fill="white" fill-opacity="0.95"/>
<path d="M739.362 25L728.683 55.5455H719.138L708.459 25H717.408L723.752 46.8551H724.07L730.394 25H739.362Z" fill="white" fill-opacity="0.95"/>
<path d="M694.397 56.1413C691.255 56.1413 688.55 55.505 686.283 54.2322C684.03 52.9463 682.293 51.13 681.073 48.7834C679.854 46.4235 679.244 43.6328 679.244 40.4112C679.244 37.2692 679.854 34.5116 681.073 32.1385C682.293 29.7654 684.01 27.916 686.224 26.5902C688.451 25.2644 691.063 24.6016 694.059 24.6016C696.074 24.6016 697.95 24.9264 699.687 25.576C701.437 26.2124 702.961 27.1735 704.261 28.4595C705.573 29.7455 706.594 31.3629 707.323 33.3118C708.052 35.2474 708.417 37.5144 708.417 40.1129V42.4396H682.624V37.1896H700.443C700.443 35.9699 700.177 34.8894 699.647 33.9482C699.117 33.0069 698.381 32.2711 697.44 31.7408C696.512 31.1972 695.431 30.9254 694.198 30.9254C692.912 30.9254 691.772 31.2237 690.778 31.8203C689.797 32.4036 689.028 33.1925 688.471 34.1868C687.914 35.1678 687.629 36.2616 687.616 37.468V42.4595C687.616 43.9709 687.894 45.2768 688.451 46.3771C689.021 47.4775 689.823 48.326 690.857 48.9226C691.891 49.5192 693.118 49.8175 694.536 49.8175C695.478 49.8175 696.339 49.6849 697.122 49.4197C697.904 49.1546 698.573 48.7569 699.13 48.2266C699.687 47.6963 700.111 47.0466 700.403 46.2777L708.238 46.7947C707.84 48.6773 707.025 50.3213 705.792 51.7266C704.572 53.1186 702.995 54.2057 701.059 54.9879C699.137 55.7569 696.916 56.1413 694.397 56.1413Z" fill="white" fill-opacity="0.95"/>
<path d="M667.459 55.5452V24.9997H675.93V55.5452H667.459ZM671.714 21.0622C670.455 21.0622 669.375 20.6446 668.473 19.8094C667.585 18.9609 667.141 17.9467 667.141 16.7668C667.141 15.6001 667.585 14.5992 668.473 13.7639C669.375 12.9155 670.455 12.4912 671.714 12.4912C672.974 12.4912 674.048 12.9155 674.936 13.7639C675.838 14.5992 676.288 15.6001 676.288 16.7668C676.288 17.9467 675.838 18.9609 674.936 19.8094C674.048 20.6446 672.974 21.0622 671.714 21.0622Z" fill="white" fill-opacity="0.95"/>
<path d="M646.785 55.5455V25H654.998V30.3295H655.316C655.873 28.4337 656.807 27.0019 658.12 26.0341C659.432 25.053 660.944 24.5625 662.654 24.5625C663.078 24.5625 663.536 24.589 664.026 24.642C664.517 24.6951 664.948 24.768 665.319 24.8608V32.3778C664.921 32.2585 664.371 32.1525 663.668 32.0597C662.966 31.9669 662.323 31.9205 661.739 31.9205C660.493 31.9205 659.379 32.1922 658.398 32.7358C657.431 33.2661 656.662 34.0085 656.091 34.9631C655.535 35.9176 655.256 37.018 655.256 38.2642V55.5455H646.785Z" fill="white" fill-opacity="0.95"/>
<path d="M643.506 24.9998V31.3635H625.111V24.9998H643.506ZM629.287 17.6816H637.759V46.1589C637.759 46.9411 637.878 47.551 638.117 47.9885C638.356 48.4127 638.687 48.711 639.111 48.8833C639.549 49.0557 640.053 49.1419 640.623 49.1419C641.02 49.1419 641.418 49.1087 641.816 49.0424C642.214 48.9629 642.519 48.9032 642.731 48.8635L644.063 55.1674C643.639 55.3 643.042 55.4525 642.273 55.6248C641.504 55.8104 640.57 55.9231 639.469 55.9629C637.428 56.0424 635.638 55.7707 634.1 55.1475C632.575 54.5244 631.389 53.5566 630.54 52.2441C629.692 50.9316 629.274 49.2744 629.287 47.2725V17.6816Z" fill="white" fill-opacity="0.95"/>
<path d="M609.951 56.1413C606.809 56.1413 604.104 55.505 601.837 54.2322C599.583 52.9463 597.847 51.13 596.627 48.7834C595.407 46.4235 594.797 43.6328 594.797 40.4112C594.797 37.2692 595.407 34.5116 596.627 32.1385C597.847 29.7654 599.564 27.916 601.778 26.5902C604.005 25.2644 606.617 24.6016 609.613 24.6016C611.628 24.6016 613.504 24.9264 615.241 25.576C616.991 26.2124 618.515 27.1735 619.814 28.4595C621.127 29.7455 622.148 31.3629 622.877 33.3118C623.606 35.2474 623.971 37.5144 623.971 40.1129V42.4396H598.178V37.1896H615.996C615.996 35.9699 615.731 34.8894 615.201 33.9482C614.671 33.0069 613.935 32.2711 612.993 31.7408C612.065 31.1972 610.985 30.9254 609.752 30.9254C608.466 30.9254 607.326 31.2237 606.331 31.8203C605.35 32.4036 604.581 33.1925 604.025 34.1868C603.468 35.1678 603.183 36.2616 603.17 37.468V42.4595C603.17 43.9709 603.448 45.2768 604.005 46.3771C604.575 47.4775 605.377 48.326 606.411 48.9226C607.445 49.5192 608.671 49.8175 610.09 49.8175C611.031 49.8175 611.893 49.6849 612.675 49.4197C613.457 49.1546 614.127 48.7569 614.684 48.2266C615.241 47.6963 615.665 47.0466 615.956 46.2777L623.792 46.7947C623.394 48.6773 622.579 50.3213 621.346 51.7266C620.126 53.1186 618.548 54.2057 616.613 54.9879C614.69 55.7569 612.47 56.1413 609.951 56.1413Z" fill="white" fill-opacity="0.95"/>
<path d="M562.171 55.5456V14.8184H578.24C581.315 14.8184 583.94 15.3685 586.115 16.4689C588.302 17.556 589.966 19.1006 591.106 21.1025C592.259 23.0911 592.836 25.431 592.836 28.1223C592.836 30.8269 592.253 33.1536 591.086 35.1024C589.919 37.0381 588.229 38.5229 586.015 39.557C583.814 40.5911 581.15 41.1081 578.021 41.1081H567.262V34.1877H576.629C578.273 34.1877 579.638 33.9623 580.725 33.5115C581.812 33.0608 582.621 32.3846 583.152 31.4831C583.695 30.5816 583.967 29.4614 583.967 28.1223C583.967 26.7701 583.695 25.6299 583.152 24.7019C582.621 23.7739 581.806 23.0712 580.705 22.5939C579.618 22.1034 578.246 21.8581 576.589 21.8581H570.782V55.5456H562.171ZM584.166 37.0115L594.288 55.5456H584.782L574.879 37.0115H584.166Z" fill="white" fill-opacity="0.95"/>
<path d="M529.186 56.0428C526.866 56.0428 524.764 55.4462 522.882 54.253C521.012 53.0466 519.527 51.2767 518.427 48.9434C517.34 46.5968 516.796 43.7199 516.796 40.3127C516.796 36.8127 517.36 33.9026 518.487 31.5826C519.614 29.2492 521.112 27.5059 522.981 26.3525C524.864 25.1858 526.925 24.6025 529.166 24.6025C530.876 24.6025 532.301 24.8941 533.441 25.4775C534.595 26.0475 535.523 26.7634 536.225 27.6252C536.941 28.4737 537.485 29.3089 537.856 30.1309H538.115V14.8184H546.566V55.5456H538.214V50.6536H537.856C537.458 51.5021 536.895 52.3439 536.166 53.1792C535.45 54.0011 534.515 54.6839 533.362 55.2275C532.222 55.771 530.83 56.0428 529.186 56.0428ZM531.87 49.3013C533.236 49.3013 534.389 48.9301 535.33 48.1877C536.285 47.432 537.014 46.378 537.518 45.0257C538.035 43.6735 538.294 42.0892 538.294 40.2729C538.294 38.4566 538.042 36.879 537.538 35.5399C537.034 34.2009 536.305 33.1668 535.35 32.4377C534.396 31.7085 533.236 31.3439 531.87 31.3439C530.478 31.3439 529.305 31.7218 528.35 32.4774C527.396 33.2331 526.673 34.2805 526.183 35.6195C525.692 36.9585 525.447 38.5096 525.447 40.2729C525.447 42.0494 525.692 43.6204 526.183 44.986C526.687 46.3382 527.409 47.3989 528.35 48.1678C529.305 48.9235 530.478 49.3013 531.87 49.3013Z" fill="white" fill-opacity="0.95"/>
<path d="M500.622 56.1413C497.48 56.1413 494.775 55.505 492.508 54.2322C490.254 52.9463 488.517 51.13 487.298 48.7834C486.078 46.4235 485.468 43.6328 485.468 40.4112C485.468 37.2692 486.078 34.5116 487.298 32.1385C488.517 29.7654 490.234 27.916 492.448 26.5902C494.676 25.2644 497.287 24.6016 500.284 24.6016C502.299 24.6016 504.175 24.9264 505.911 25.576C507.661 26.2124 509.186 27.1735 510.485 28.4595C511.798 29.7455 512.819 31.3629 513.548 33.3118C514.277 35.2474 514.642 37.5144 514.642 40.1129V42.4396H488.849V37.1896H506.667C506.667 35.9699 506.402 34.8894 505.872 33.9482C505.341 33.0069 504.606 32.2711 503.664 31.7408C502.736 31.1972 501.656 30.9254 500.423 30.9254C499.137 30.9254 497.997 31.2237 497.002 31.8203C496.021 32.4036 495.252 33.1925 494.696 34.1868C494.139 35.1678 493.854 36.2616 493.84 37.468V42.4595C493.84 43.9709 494.119 45.2768 494.676 46.3771C495.246 47.4775 496.048 48.326 497.082 48.9226C498.116 49.5192 499.342 49.8175 500.761 49.8175C501.702 49.8175 502.564 49.6849 503.346 49.4197C504.128 49.1546 504.798 48.7569 505.355 48.2266C505.911 47.6963 506.336 47.0466 506.627 46.2777L514.463 46.7947C514.065 48.6773 513.249 50.3213 512.017 51.7266C510.797 53.1186 509.219 54.2057 507.284 54.9879C505.361 55.7569 503.141 56.1413 500.622 56.1413Z" fill="white" fill-opacity="0.95"/>
<path d="M473.683 55.5452V24.9997H482.155V55.5452H473.683ZM477.939 21.0622C476.68 21.0622 475.599 20.6446 474.698 19.8094C473.809 18.9609 473.365 17.9467 473.365 16.7668C473.365 15.6001 473.809 14.5992 474.698 13.7639C475.599 12.9155 476.68 12.4912 477.939 12.4912C479.199 12.4912 480.272 12.9155 481.161 13.7639C482.062 14.5992 482.513 15.6001 482.513 16.7668C482.513 17.9467 482.062 18.9609 481.161 19.8094C480.272 20.6446 479.199 21.0622 477.939 21.0622Z" fill="white" fill-opacity="0.95"/>
<path d="M470.748 25.0001V31.3637H451.896V25.0001H470.748ZM456.211 55.5455V22.7927C456.211 20.5787 456.642 18.7425 457.503 17.2842C458.378 15.8258 459.572 14.7321 461.083 14.0029C462.594 13.2738 464.311 12.9092 466.234 12.9092C467.533 12.9092 468.719 13.0086 469.793 13.2075C470.88 13.4063 471.689 13.5853 472.219 13.7444L470.708 20.108C470.377 20.002 469.966 19.9026 469.475 19.8097C468.998 19.7169 468.507 19.6705 468.003 19.6705C466.757 19.6705 465.889 19.9622 465.398 20.5455C464.908 21.1156 464.663 21.9177 464.663 22.9518V55.5455H456.211Z" fill="white" fill-opacity="0.95"/>
<path d="M441.304 55.5452V24.9997H449.776V55.5452H441.304ZM445.56 21.0622C444.3 21.0622 443.22 20.6446 442.318 19.8094C441.43 18.9609 440.986 17.9467 440.986 16.7668C440.986 15.6001 441.43 14.5992 442.318 13.7639C443.22 12.9155 444.3 12.4912 445.56 12.4912C446.819 12.4912 447.893 12.9155 448.781 13.7639C449.683 14.5992 450.134 15.6001 450.134 16.7668C450.134 17.9467 449.683 18.9609 448.781 19.8094C447.893 20.6446 446.819 21.0622 445.56 21.0622Z" fill="white" fill-opacity="0.95"/>
<path d="M417.18 37.8857V55.5447H408.708V24.9993H416.782V30.3885H417.14C417.816 28.612 418.949 27.2067 420.54 26.1726C422.131 25.1252 424.06 24.6016 426.327 24.6016C428.449 24.6016 430.298 25.0656 431.876 25.9936C433.453 26.9216 434.68 28.2474 435.555 29.9709C436.43 31.6811 436.867 33.7228 436.867 36.0959V55.5447H428.396V37.6072C428.409 35.7379 427.931 34.2796 426.964 33.2322C425.996 32.1716 424.663 31.6413 422.967 31.6413C421.826 31.6413 420.819 31.8866 419.944 32.3771C419.082 32.8677 418.406 33.5836 417.915 34.5249C417.438 35.4529 417.193 36.5732 417.18 37.8857Z" fill="white" fill-opacity="0.95"/>
<path d="M395.412 14.8184H404.022V41.2672C404.022 44.2369 403.313 46.8354 401.895 49.0627C400.489 51.2899 398.521 53.0267 395.988 54.2729C393.456 55.5059 390.506 56.1223 387.139 56.1223C383.758 56.1223 380.802 55.5059 378.27 54.2729C375.737 53.0267 373.769 51.2899 372.363 49.0627C370.958 46.8354 370.255 44.2369 370.255 41.2672V14.8184H378.866V40.5314C378.866 42.0826 379.204 43.4614 379.88 44.6678C380.57 45.8742 381.538 46.8221 382.784 47.5115C384.03 48.2009 385.482 48.5456 387.139 48.5456C388.809 48.5456 390.261 48.2009 391.494 47.5115C392.74 46.8221 393.701 45.8742 394.378 44.6678C395.067 43.4614 395.412 42.0826 395.412 40.5314V14.8184Z" fill="white" fill-opacity="0.95"/>
<path d="M342.067 56.1413C338.925 56.1413 336.221 55.505 333.954 54.2322C331.7 52.9463 329.963 51.13 328.744 48.7834C327.524 46.4235 326.914 43.6328 326.914 40.4112C326.914 37.2692 327.524 34.5116 328.744 32.1385C329.963 29.7654 331.68 27.916 333.894 26.5902C336.121 25.2644 338.733 24.6016 341.729 24.6016C343.745 24.6016 345.621 24.9264 347.357 25.576C349.107 26.2124 350.632 27.1735 351.931 28.4595C353.244 29.7455 354.264 31.3629 354.994 33.3118C355.723 35.2474 356.087 37.5144 356.087 40.1129V42.4396H330.295V37.1896H348.113C348.113 35.9699 347.848 34.8894 347.317 33.9482C346.787 33.0069 346.051 32.2711 345.11 31.7408C344.182 31.1972 343.102 30.9254 341.869 30.9254C340.583 30.9254 339.442 31.2237 338.448 31.8203C337.467 32.4036 336.698 33.1925 336.141 34.1868C335.585 35.1678 335.299 36.2616 335.286 37.468V42.4595C335.286 43.9709 335.565 45.2768 336.121 46.3771C336.692 47.4775 337.494 48.326 338.528 48.9226C339.562 49.5192 340.788 49.8175 342.207 49.8175C343.148 49.8175 344.01 49.6849 344.792 49.4197C345.574 49.1546 346.244 48.7569 346.8 48.2266C347.357 47.6963 347.781 47.0466 348.073 46.2777L355.908 46.7947C355.511 48.6773 354.695 50.3213 353.462 51.7266C352.243 53.1186 350.665 54.2057 348.729 54.9879C346.807 55.7569 344.586 56.1413 342.067 56.1413Z" fill="white" fill-opacity="0.95"/>
<path d="M327.036 25L316.357 55.5455H306.812L296.133 25H305.082L311.425 46.8551H311.744L318.067 25H327.036Z" fill="white" fill-opacity="0.95"/>
<path d="M285.541 55.5452V24.9997H294.012V55.5452H285.541ZM289.797 21.0622C288.537 21.0622 287.457 20.6446 286.555 19.8094C285.667 18.9609 285.223 17.9467 285.223 16.7668C285.223 15.6001 285.667 14.5992 286.555 13.7639C287.457 12.9155 288.537 12.4912 289.797 12.4912C291.056 12.4912 292.13 12.9155 293.018 13.7639C293.92 14.5992 294.37 15.6001 294.37 16.7668C294.37 17.9467 293.92 18.9609 293.018 19.8094C292.13 20.6446 291.056 21.0622 289.797 21.0622Z" fill="white" fill-opacity="0.95"/>
<path d="M282.263 24.9998V31.3635H263.868V24.9998H282.263ZM268.044 17.6816H276.515V46.1589C276.515 46.9411 276.635 47.551 276.873 47.9885C277.112 48.4127 277.443 48.711 277.868 48.8833C278.305 49.0557 278.809 49.1419 279.379 49.1419C279.777 49.1419 280.174 49.1087 280.572 49.0424C280.97 48.9629 281.275 48.9032 281.487 48.8635L282.819 55.1674C282.395 55.3 281.799 55.4525 281.03 55.6248C280.261 55.8104 279.326 55.9231 278.226 55.9629C276.184 56.0424 274.394 55.7707 272.856 55.1475C271.332 54.5244 270.145 53.5566 269.297 52.2441C268.448 50.9316 268.031 49.2744 268.044 47.2725V17.6816Z" fill="white" fill-opacity="0.95"/>
<path d="M244.481 56.1215C242.532 56.1215 240.795 55.7834 239.271 55.1072C237.746 54.4179 236.54 53.4036 235.651 52.0646C234.776 50.7124 234.339 49.0286 234.339 47.0135C234.339 45.3165 234.65 43.8913 235.274 42.7379C235.897 41.5845 236.745 40.6565 237.819 39.9538C238.893 39.2512 240.113 38.7209 241.478 38.3629C242.857 38.005 244.302 37.7531 245.813 37.6072C247.59 37.4216 249.022 37.2493 250.109 37.0902C251.196 36.9179 251.985 36.666 252.475 36.3345C252.966 36.0031 253.211 35.5125 253.211 34.8629V34.7436C253.211 33.4841 252.813 32.5097 252.018 31.8203C251.236 31.1309 250.122 30.7862 248.677 30.7862C247.152 30.7862 245.939 31.1243 245.038 31.8004C244.136 32.4633 243.54 33.2985 243.248 34.3061L235.413 33.6697C235.81 31.8137 236.593 30.2095 237.759 28.8572C238.926 27.4917 240.431 26.4444 242.274 25.7152C244.13 24.9728 246.277 24.6016 248.717 24.6016C250.414 24.6016 252.038 24.8004 253.589 25.1982C255.153 25.5959 256.539 26.2124 257.745 27.0476C258.965 27.8828 259.926 28.9567 260.629 30.2692C261.331 31.5684 261.683 33.1262 261.683 34.9425V55.5447H253.649V51.309H253.41C252.919 52.2635 252.263 53.1053 251.441 53.8345C250.619 54.5504 249.631 55.1139 248.478 55.5249C247.325 55.9226 245.992 56.1215 244.481 56.1215ZM246.907 50.2749C248.153 50.2749 249.254 50.0296 250.208 49.5391C251.163 49.0353 251.912 48.3591 252.455 47.5107C252.999 46.6622 253.271 45.701 253.271 44.6271V41.3857C253.006 41.558 252.641 41.7171 252.177 41.8629C251.726 41.9955 251.216 42.1214 250.646 42.2408C250.076 42.3468 249.506 42.4463 248.935 42.5391C248.365 42.6186 247.848 42.6915 247.384 42.7578C246.39 42.9036 245.522 43.1357 244.779 43.4538C244.037 43.772 243.46 44.2029 243.049 44.7465C242.638 45.2768 242.433 45.9396 242.433 46.7351C242.433 47.8885 242.85 48.7701 243.685 49.38C244.534 49.9766 245.608 50.2749 246.907 50.2749Z" fill="white" fill-opacity="0.95"/>
<path d="M215.972 55.5455V25H224.185V30.3295H224.503C225.06 28.4337 225.994 27.0019 227.307 26.0341C228.619 25.053 230.131 24.5625 231.841 24.5625C232.265 24.5625 232.723 24.589 233.213 24.642C233.704 24.6951 234.135 24.768 234.506 24.8608V32.3778C234.108 32.2585 233.558 32.1525 232.855 32.0597C232.153 31.9669 231.51 31.9205 230.926 31.9205C229.68 31.9205 228.566 32.1922 227.585 32.7358C226.618 33.2661 225.849 34.0085 225.279 34.9631C224.722 35.9176 224.443 37.018 224.443 38.2642V55.5455H215.972Z" fill="white" fill-opacity="0.95"/>
<path d="M198.664 56.1413C195.522 56.1413 192.817 55.505 190.55 54.2322C188.296 52.9463 186.559 51.13 185.34 48.7834C184.12 46.4235 183.51 43.6328 183.51 40.4112C183.51 37.2692 184.12 34.5116 185.34 32.1385C186.559 29.7654 188.276 27.916 190.49 26.5902C192.718 25.2644 195.329 24.6016 198.326 24.6016C200.341 24.6016 202.217 24.9264 203.953 25.576C205.703 26.2124 207.228 27.1735 208.527 28.4595C209.84 29.7455 210.861 31.3629 211.59 33.3118C212.319 35.2474 212.684 37.5144 212.684 40.1129V42.4396H186.891V37.1896H204.709C204.709 35.9699 204.444 34.8894 203.914 33.9482C203.383 33.0069 202.648 32.2711 201.706 31.7408C200.778 31.1972 199.698 30.9254 198.465 30.9254C197.179 30.9254 196.039 31.2237 195.044 31.8203C194.063 32.4036 193.294 33.1925 192.738 34.1868C192.181 35.1678 191.896 36.2616 191.882 37.468V42.4595C191.882 43.9709 192.161 45.2768 192.718 46.3771C193.288 47.4775 194.09 48.326 195.124 48.9226C196.158 49.5192 197.384 49.8175 198.803 49.8175C199.744 49.8175 200.606 49.6849 201.388 49.4197C202.17 49.1546 202.84 48.7569 203.397 48.2266C203.953 47.6963 204.378 47.0466 204.669 46.2777L212.505 46.7947C212.107 48.6773 211.292 50.3213 210.059 51.7266C208.839 53.1186 207.261 54.2057 205.326 54.9879C203.403 55.7569 201.183 56.1413 198.664 56.1413Z" fill="white" fill-opacity="0.95"/>
<path d="M160.619 37.8857V55.5447H152.147V24.9993H160.221V30.3885H160.579C161.255 28.612 162.388 27.2067 163.979 26.1726C165.57 25.1252 167.499 24.6016 169.766 24.6016C171.888 24.6016 173.737 25.0656 175.315 25.9936C176.892 26.9216 178.119 28.2474 178.994 29.9709C179.869 31.6811 180.306 33.7228 180.306 36.0959V55.5447H171.834V37.6072C171.848 35.7379 171.37 34.2796 170.403 33.2322C169.435 32.1716 168.102 31.6413 166.405 31.6413C165.265 31.6413 164.258 31.8866 163.383 32.3771C162.521 32.8677 161.845 33.5836 161.354 34.5249C160.877 35.4529 160.632 36.5732 160.619 37.8857Z" fill="white" fill-opacity="0.95"/>
<path d="M134.839 56.1413C131.697 56.1413 128.992 55.505 126.725 54.2322C124.472 52.9463 122.735 51.13 121.515 48.7834C120.295 46.4235 119.686 43.6328 119.686 40.4112C119.686 37.2692 120.295 34.5116 121.515 32.1385C122.735 29.7654 124.452 27.916 126.666 26.5902C128.893 25.2644 131.505 24.6016 134.501 24.6016C136.516 24.6016 138.392 24.9264 140.129 25.576C141.879 26.2124 143.403 27.1735 144.703 28.4595C146.015 29.7455 147.036 31.3629 147.765 33.3118C148.494 35.2474 148.859 37.5144 148.859 40.1129V42.4396H123.066V37.1896H140.884C140.884 35.9699 140.619 34.8894 140.089 33.9482C139.559 33.0069 138.823 32.2711 137.882 31.7408C136.954 31.1972 135.873 30.9254 134.64 30.9254C133.354 30.9254 132.214 31.2237 131.22 31.8203C130.239 32.4036 129.47 33.1925 128.913 34.1868C128.356 35.1678 128.071 36.2616 128.058 37.468V42.4595C128.058 43.9709 128.336 45.2768 128.893 46.3771C129.463 47.4775 130.265 48.326 131.299 48.9226C132.333 49.5192 133.56 49.8175 134.978 49.8175C135.919 49.8175 136.781 49.6849 137.563 49.4197C138.346 49.1546 139.015 48.7569 139.572 48.2266C140.129 47.6963 140.553 47.0466 140.845 46.2777L148.68 46.7947C148.282 48.6773 147.467 50.3213 146.234 51.7266C145.014 53.1186 143.436 54.2057 141.501 54.9879C139.579 55.7569 137.358 56.1413 134.839 56.1413Z" fill="white" fill-opacity="0.95"/>
<path d="M107.722 27.9823C107.443 27.0145 107.052 26.1594 106.548 25.417C106.045 24.6613 105.428 24.0249 104.699 23.5079C103.983 22.9776 103.161 22.5732 102.233 22.2948C101.318 22.0164 100.304 21.8772 99.1903 21.8772C97.1089 21.8772 95.2794 22.3943 93.7017 23.4284C92.1373 24.4624 90.9176 25.9672 90.0426 27.9426C89.1676 29.9047 88.7301 32.3043 88.7301 35.1414C88.7301 37.9785 89.161 40.3914 90.0227 42.3801C90.8845 44.3687 92.1042 45.8867 93.6818 46.934C95.2595 47.9681 97.1222 48.4852 99.2699 48.4852C101.219 48.4852 102.883 48.1405 104.261 47.4511C105.653 46.7484 106.714 45.7607 107.443 44.488C108.186 43.2153 108.557 41.7106 108.557 39.9738L110.307 40.2323H99.8068V33.7494H116.849V38.8801C116.849 42.4596 116.094 45.5354 114.582 48.1073C113.071 50.666 110.99 52.6414 108.338 54.0335C105.687 55.4123 102.651 56.1017 99.2301 56.1017C95.4119 56.1017 92.0578 55.2598 89.1676 53.5761C86.2775 51.8791 84.0237 49.4729 82.4063 46.3573C80.8021 43.2285 80 39.5164 80 35.221C80 31.9198 80.4773 28.9767 81.4318 26.3914C82.3996 23.7929 83.7519 21.5922 85.4886 19.7892C87.2254 17.9861 89.2472 16.614 91.554 15.6727C93.8608 14.7314 96.3598 14.2607 99.0511 14.2607C101.358 14.2607 103.506 14.5988 105.494 15.2749C107.483 15.9378 109.246 16.8791 110.784 18.0988C112.335 19.3185 113.601 20.7702 114.582 22.4539C115.563 24.1244 116.193 25.9672 116.472 27.9823H107.722Z" fill="white" fill-opacity="0.95"/>
<defs>
<clipPath id="clip0_80_53755">
<rect width="56" height="56" fill="white"/>
</clipPath>
</defs>
</svg>
